<?xml version="1.0" encoding="utf-8"?><svg xmlns="http://www.w3.org/2000/svg" xmlns:xlink="http://www.w3.org/1999/xlink" width="1981" height="970" preserveAspectRatio="xMidYMid" viewBox="0 0 1981 970" style="z-index:1;margin-right:-2px;display:block;background-repeat-y:initial;background-repeat-x:initial;background-color:rgb(5, 31, 32);animation-play-state:paused" ><g transform="translate(990.5,485) scale(1,1) translate(-990.5,-485)" style="transform:matrix(1, 0, 0, 1, 0, 0);animation-play-state:paused" ><defs style="animation-play-state:paused" ><path id="path-ol1nrewamkb-1" d="M-35 -35L35 -35L35 35L-35 35Z" fill="none" stroke="inherit" stroke-width="5.7894736842105265" transform="scale(0.38)" style="transform:matrix(0.38, 0, 0, 0.38, 0, 0);animation-play-state:paused" ></path>

  
<path id="path-ol1nrewamkb-2" d="M0 -37A37 37 0 0 1 0 37A37 37 0 0 1 0 -37" fill="none" stroke="inherit" stroke-width="5.7894736842105265" transform="scale(0.38)" style="transform:matrix(0.38, 0, 0, 0.38, 0, 0);animation-play-state:paused" ></path>

  
<path id="path-ol1nrewamkb-3" d="M0 -34.641L40 34.641L-40 34.641Z" fill="none" stroke="inherit" stroke-width="5.7894736842105265" transform="scale(0.38)" style="transform:matrix(0.38, 0, 0, 0.38, 0, 0);animation-play-state:paused" ></path></defs>
<path id="path0" d="M 53.445575339046286 483.6885820599851
c 0 35.37996026883948 -8.656798789184128 10.162329013390066 -18.819127802574194 10.162329013390066
S 15.807319733897899 519.0685423288246 15.807319733897899 483.6885820599851
s 8.656798789184128 -10.162329013390066 18.819127802574194 -10.162329013390066
S 53.445575339046286 448.3086217911456 53.445575339046286 483.6885820599851
z" fill="none" stroke="none" style="animation-play-state:paused" ></path>


<use xlink:href="#path-ol1nrewamkb-2" x="0" y="0" stroke="#235347" transform="translate(52.93098068237305 495.4367370605469)" style="animation-play-state:paused" ></use>
<path id="path1" d="M 119.49802914932899 456.7671695215827
c 0 37.82711569517927 -9.255570861586417 10.865235359253623 -20.120806220840038 10.865235359253623
S 79.25641670764891 494.59428521676193 79.25641670764891 456.7671695215827
s 9.255570861586417 -10.865235359253623 20.120806220840038 -10.865235359253623
S 119.49802914932899 418.9400538264034 119.49802914932899 456.7671695215827
z" fill="none" stroke="none" style="animation-play-state:paused" ></path>


<use xlink:href="#path-ol1nrewamkb-2" x="0" y="0" stroke="#235347" transform="translate(118.76287078857422 470.70050048828125)" style="animation-play-state:paused" ></use>
<path id="path2" d="M 167.83538255345735 222.36829020539437
c 0 24.778946254614585 -6.062933658043994 7.117356902921211 -13.180290560965204 7.117356902921211
S 141.47480143152694 247.14723646000897 141.47480143152694 222.36829020539437
s 6.062933658043994 -7.117356902921211 13.180290560965204 -7.117356902921211
S 167.83538255345735 197.58934395077978 167.83538255345735 222.36829020539437
z" fill="none" stroke="none" style="animation-play-state:paused" ></path>


<use xlink:href="#path-ol1nrewamkb-1" x="0" y="0" stroke="#8eb69b" transform="translate(146.8900146484375 210.57821655273438)" style="animation-play-state:paused" ></use>
<path id="path3" d="M 192.52983221705165 315.9438971054095
c 0 43.29387117440397 -10.59318124480097 12.435473635201141 -23.02865488000211 12.435473635201141
S 146.47252245704743 359.2377682798135 146.47252245704743 315.9438971054095
s 10.59318124480097 -12.435473635201141 23.02865488000211 -12.435473635201141
S 192.52983221705165 272.65002593100553 192.52983221705165 315.9438971054095
z" fill="none" stroke="none" style="animation-play-state:paused" ></path>


<use xlink:href="#path-ol1nrewamkb-1" x="0" y="0" stroke="#163832" transform="translate(147.3843231201172 299.5534362792969)" style="animation-play-state:paused" ></use>
<path id="path4" d="M 240.68182011166837 645.1441447864735
c 0 30.11204080187008 -7.367839770670338 8.649203209047789 -16.017042979718127 8.649203209047789
S 208.64773415223212 675.2561855883436 208.64773415223212 645.1441447864735
s 7.367839770670338 -8.649203209047789 16.017042979718127 -8.649203209047789
S 240.68182011166837 615.0321039846034 240.68182011166837 645.1441447864735
z" fill="none" stroke="none" style="animation-play-state:paused" ></path>


<use xlink:href="#path-ol1nrewamkb-1" x="0" y="0" stroke="#163832" transform="translate(208.9672088623047 636.2816772460938)" style="animation-play-state:paused" ></use>
<path id="path5" d="M 294.52521480172163 897.9599291453782
c 0 40.27679724134763 -9.854961027138248 11.568867292727512 -21.423828319865763 11.568867292727512
S 251.67755816199008 938.2367263867258 251.67755816199008 897.9599291453782
s 9.854961027138248 -11.568867292727512 21.423828319865763 -11.568867292727512
S 294.52521480172163 857.6831319040306 294.52521480172163 897.9599291453782
z" fill="none" stroke="none" style="animation-play-state:paused" ></path>


<use xlink:href="#path-ol1nrewamkb-1" x="0" y="0" stroke="#8eb69b" transform="translate(291.15557861328125 919.1485595703125)" style="animation-play-state:paused" ></use>
<path id="path6" d="M 349.9530407429649 620.5446883514503
c 0 58.70597775919848 -14.364228600654947 16.86235531381233 -31.226583914467277 16.86235531381233
S 287.4998729140304 679.2506661106488 287.4998729140304 620.5446883514503
s 14.364228600654947 -16.86235531381233 31.226583914467277 -16.86235531381233
S 349.9530407429649 561.8387105922518 349.9530407429649 620.5446883514503
z" fill="none" stroke="none" style="animation-play-state:paused" ></path>


<use xlink:href="#path-ol1nrewamkb-2" x="0" y="0" stroke="#163832" transform="translate(290.00628662109375 647.9420166015625)" style="animation-play-state:paused" ></use>
<path id="path7" d="M 369.0608752891875 637.9155100754251
c 0 46.63906814706681 -11.411686887048262 13.396328084795787 -24.80801497184405 13.396328084795787
S 319.4448453454994 684.554578222492 319.4448453454994 637.9155100754251
s 11.411686887048262 -13.396328084795787 24.80801497184405 -13.396328084795787
S 369.0608752891875 591.2764419283583 369.0608752891875 637.9155100754251
z" fill="none" stroke="none" style="animation-play-state:paused" ></path>


<use xlink:href="#path-ol1nrewamkb-1" x="0" y="0" stroke="#8eb69b" transform="translate(319.4456481933594 638.3268432617188)" style="animation-play-state:paused" ></use>
<path id="path8" d="M 434.1144792886102 141.2500067501588
c 0 29.813943483816665 -7.294901065189183 8.563579511309042 -15.858480576498227 8.563579511309042
S 402.3975181356138 171.06395023397548 402.3975181356138 141.2500067501588
s 7.294901065189183 -8.563579511309042 15.858480576498227 -8.563579511309042
S 434.1144792886102 111.43606326634213 434.1144792886102 141.2500067501588
z" fill="none" stroke="none" style="animation-play-state:paused" ></path>


<use xlink:href="#path-ol1nrewamkb-3" x="0" y="0" stroke="#163832" transform="translate(434.0089416503906 135.7080535888672)" style="animation-play-state:paused" ></use>
<path id="path9" d="M 468.0989968787896 277.9772238472362
c 0 42.51056477063152 -10.401521167282178 12.210481370287777 -22.612002537569957 12.210481370287777
S 422.8749918036497 320.4877886178677 422.8749918036497 277.9772238472362
s 10.401521167282178 -12.210481370287777 22.612002537569957 -12.210481370287777
S 468.0989968787896 235.46665907660469 468.0989968787896 277.9772238472362
z" fill="none" stroke="none" style="animation-play-state:paused" ></path>


<use xlink:href="#path-ol1nrewamkb-2" x="0" y="0" stroke="#8eb69b" transform="translate(422.88323974609375 275.97198486328125)" style="animation-play-state:paused" ></use>
<path id="path10" d="M 515.6426100117583 850.5665442786634
c 0 57.35745361132245 -14.034270564472513 16.4750132713373 -30.50928383580981 16.4750132713373
S 454.6240423401386 907.9239978899858 454.6240423401386 850.5665442786634
s 14.034270564472513 -16.4750132713373 30.50928383580981 -16.4750132713373
S 515.6426100117583 793.209090667341 515.6426100117583 850.5665442786634
z" fill="none" stroke="none" style="animation-play-state:paused" ></path>


<use xlink:href="#path-ol1nrewamkb-3" x="0" y="0" stroke="#163832" transform="translate(455.91912841796875 872.79345703125)" style="animation-play-state:paused" ></use>
<path id="path11" d="M 564.0207927435968 650.2712920836896
c 0 57.75889352914562 -14.132495225216479 16.59032048177587 -30.72281570699235 16.59032048177587
S 502.575161329612 708.0301856128352 502.575161329612 650.2712920836896
s 14.132495225216479 -16.59032048177587 30.72281570699235 -16.59032048177587
S 564.0207927435968 592.5123985545439 564.0207927435968 650.2712920836896
z" fill="none" stroke="none" style="animation-play-state:paused" ></path>


<use xlink:href="#path-ol1nrewamkb-2" x="0" y="0" stroke="#163832" transform="translate(563.6719360351562 636.7568359375)" style="animation-play-state:paused" ></use>
<path id="path12" d="M 606.0954775175745 340.09384456960964
c 0 36.908499272459274 -9.030803013474076 10.601377450600005 -19.632180464074082 10.601377450600005
S 566.8311165894264 377.0023438420689 566.8311165894264 340.09384456960964
s 9.030803013474076 -10.601377450600005 19.632180464074082 -10.601377450600005
S 606.0954775175745 303.1853452971504 606.0954775175745 340.09384456960964
z" fill="none" stroke="none" style="animation-play-state:paused" ></path>


<use xlink:href="#path-ol1nrewamkb-1" x="0" y="0" stroke="#163832" transform="translate(606.0386352539062 344.79766845703125)" style="animation-play-state:paused" ></use>
<path id="path13" d="M 645.7643907366268 165.94138901990382
c 0 34.742802297673336 -8.50089843453709 9.979315553587021 -18.480213988124113 9.979315553587021
S 608.8039627603786 200.68419131757716 608.8039627603786 165.94138901990382
s 8.50089843453709 -9.979315553587021 18.480213988124113 -9.979315553587021
S 645.7643907366268 131.1985867222305 645.7643907366268 165.94138901990382
z" fill="none" stroke="none" style="animation-play-state:paused" ></path>


<use xlink:href="#path-ol1nrewamkb-3" x="0" y="0" stroke="#163832" transform="translate(621.2985229492188 153.4959259033203)" style="animation-play-state:paused" ></use>
<path id="path14" d="M 691.7321420002074 736.9345241394227
c 0 38.982053044611646 -9.538161915170933 11.196972683026749 -20.735134598197682 11.196972683026749
S 650.2618728038121 775.9165771840344 650.2618728038121 736.9345241394227
s 9.538161915170933 -11.196972683026749 20.735134598197682 -11.196972683026749
S 691.7321420002074 697.952471094811 691.7321420002074 736.9345241394227
z" fill="none" stroke="none" style="animation-play-state:paused" ></path>


<use xlink:href="#path-ol1nrewamkb-1" x="0" y="0" stroke="#163832" transform="translate(660.2246704101562 754.2562866210938)" style="animation-play-state:paused" ></use>
<path id="path15" d="M 729.5242851445847 807.5473806433754
c 0 50.57060139412618 -12.37365778792449 14.525598272780925 -26.899256060705415 14.525598272780925
S 675.7257730231739 858.1179820375015 675.7257730231739 807.5473806433754
s 12.37365778792449 -14.525598272780925 26.899256060705415 -14.525598272780925
S 729.5242851445847 756.9767792492493 729.5242851445847 807.5473806433754
z" fill="none" stroke="none" style="animation-play-state:paused" ></path>


<use xlink:href="#path-ol1nrewamkb-1" x="0" y="0" stroke="#163832" transform="translate(721.1973266601562 781.5059204101562)" style="animation-play-state:paused" ></use>
<path id="path16" d="M 818.4133382199863 719.2232965675157
c 0 61.748336031412464 -15.108635411941345 17.736224179235496 -32.84485959117684 17.736224179235496
S 752.7236190376326 780.9716325989282 752.7236190376326 719.2232965675157
s 15.108635411941345 -17.736224179235496 32.84485959117684 -17.736224179235496
S 818.4133382199863 657.4749605361033 818.4133382199863 719.2232965675157
z" fill="none" stroke="none" style="animation-play-state:paused" ></path>


<use xlink:href="#path-ol1nrewamkb-1" x="0" y="0" stroke="#235347" transform="translate(756.0018310546875 749.5018310546875)" style="animation-play-state:paused" ></use>
<path id="path17" d="M 809.0473071109044 139.93562195088697
c 0 31.241469650562763 -7.644189382584504 8.973613623033986 -16.61780300561849 8.973613623033986
S 775.8117010996674 171.17709160144972 775.8117010996674 139.93562195088697
s 7.644189382584504 -8.973613623033986 16.61780300561849 -8.973613623033986
S 809.0473071109044 108.6941523003242 809.0473071109044 139.93562195088697
z" fill="none" stroke="none" style="animation-play-state:paused" ></path>


<use xlink:href="#path-ol1nrewamkb-2" x="0" y="0" stroke="#163832" transform="translate(795.8601684570312 149.87832641601562)" style="animation-play-state:paused" ></use>
<path id="path18" d="M 907.3851315044953 498.3005327176759
c 0 62.260143920552764 -15.233865001837376 17.88323282824388 -33.117097830081256 17.88323282824388
S 841.1509358443329 560.5606766382286 841.1509358443329 498.3005327176759
s 15.233865001837376 -17.88323282824388 33.117097830081256 -17.88323282824388
S 907.3851315044953 436.0403887971231 907.3851315044953 498.3005327176759
z" fill="none" stroke="none" style="animation-play-state:paused" ></path>


<use xlink:href="#path-ol1nrewamkb-3" x="0" y="0" stroke="#163832" transform="translate(841.1593017578125 500.6762390136719)" style="animation-play-state:paused" ></use>
<path id="path19" d="M 911.0787133438611 624.0250691184798
c 0 21.93117784820602 -5.366139260731259 6.299380871293219 -11.66552013202448 6.299380871293219
S 887.7476730798122 645.9562469666859 887.7476730798122 624.0250691184798
s 5.366139260731259 -6.299380871293219 11.66552013202448 -6.299380871293219
S 911.0787133438611 602.0938912702737 911.0787133438611 624.0250691184798
z" fill="none" stroke="none" style="animation-play-state:paused" ></path>


<use xlink:href="#path-ol1nrewamkb-2" x="0" y="0" stroke="#8eb69b" transform="translate(887.8135986328125 627.8106689453125)" style="animation-play-state:paused" ></use>
<path id="path20" d="M 987.479757693154 424.30479841887256
c 0 55.390622087814904 -13.553024553401517 15.910072301819175 -29.46309685522069 15.910072301819175
S 928.5535639827127 479.69542050668747 928.5535639827127 424.30479841887256
s 13.553024553401517 -15.910072301819175 29.46309685522069 -15.910072301819175
S 987.479757693154 368.91417633105766 987.479757693154 424.30479841887256
z" fill="none" stroke="none" style="animation-play-state:paused" ></path>


<use xlink:href="#path-ol1nrewamkb-1" x="0" y="0" stroke="#8eb69b" transform="translate(945.9486694335938 402.4737548828125)" style="animation-play-state:paused" ></use>
<path id="path21" d="M 1000.5231492143602 310.1807825784519
c 0 23.05004472456962 -5.639904560267034 6.620757527269997 -12.260662087537032 6.620757527269997
S 976.001825039286 333.2308273030215 976.001825039286 310.1807825784519
s 5.639904560267034 -6.620757527269997 12.260662087537032 -6.620757527269997
S 1000.5231492143602 287.1307378538823 1000.5231492143602 310.1807825784519
z" fill="none" stroke="none" style="animation-play-state:paused" ></path>


<use xlink:href="#path-ol1nrewamkb-2" x="0" y="0" stroke="#163832" transform="translate(1000.5140380859375 311.7135314941406)" style="animation-play-state:paused" ></use>
<path id="path22" d="M 1060.322168501729 402.8413152920096
c 0 43.11173801127967 -10.54861674744077 12.38315879047395 -22.931775537914717 12.38315879047395
S 1014.4586174258995 445.95305330328927 1014.4586174258995 402.8413152920096
s 10.54861674744077 -12.38315879047395 22.931775537914717 -12.38315879047395
S 1060.322168501729 359.7295772807299 1060.322168501729 402.8413152920096
z" fill="none" stroke="none" style="animation-play-state:paused" ></path>


<use xlink:href="#path-ol1nrewamkb-2" x="0" y="0" stroke="#163832" transform="translate(1014.4597778320312 403.4617614746094)" style="animation-play-state:paused" ></use>
<path id="path23" d="M 1112.496768769289 539.0658429301635
c 0 41.6478558760783 -10.190432820742561 11.962682006958662 -22.153114827701224 11.962682006958662
S 1068.1905391138864 580.7136988062418 1068.1905391138864 539.0658429301635
s 10.190432820742561 -11.962682006958662 22.153114827701224 -11.962682006958662
S 1112.496768769289 497.4179870540852 1112.496768769289 539.0658429301635
z" fill="none" stroke="none" style="animation-play-state:paused" ></path>


<use xlink:href="#path-ol1nrewamkb-1" x="0" y="0" stroke="#163832" transform="translate(1093.3555908203125 526.5197143554688)" style="animation-play-state:paused" ></use>
<path id="path24" d="M 1150.1936131837654 84.18598180095796
c 0 51.13372630383331 -12.511443670086873 14.687346917058505 -27.19879058714538 14.687346917058505
S 1095.7960320094746 135.3197081047913 1095.7960320094746 84.18598180095796
s 12.511443670086873 -14.687346917058505 27.19879058714538 -14.687346917058505
S 1150.1936131837654 33.05225549712465 1150.1936131837654 84.18598180095796
z" fill="none" stroke="none" style="animation-play-state:paused" ></path>


<use xlink:href="#path-ol1nrewamkb-3" x="0" y="0" stroke="#8eb69b" transform="translate(1150.190185546875 85.58245849609375)" style="animation-play-state:paused" ></use>
<path id="path25" d="M 1208.120515518499 755.7797133371301
c 0 39.46875213393012 -9.657247862557368 11.33676922995865 -20.994017092516017 11.33676922995865
S 1166.1324813334668 795.2484654710603 1166.1324813334668 755.7797133371301
s 9.657247862557368 -11.33676922995865 20.994017092516017 -11.33676922995865
S 1208.120515518499 716.3109612032 1208.120515518499 755.7797133371301
z" fill="none" stroke="none" style="animation-play-state:paused" ></path>


<use xlink:href="#path-ol1nrewamkb-1" x="0" y="0" stroke="#8eb69b" transform="translate(1178.4248046875 771.4216918945312)" style="animation-play-state:paused" ></use>
<path id="path26" d="M 1214.2282073073252 540.8488618201019
c 0 34.902224187353724 -8.539905918182292 10.02510694743139 -18.56501286561368 10.02510694743139
S 1177.0981815760979 575.7510860074556 1177.0981815760979 540.8488618201019
s 8.539905918182292 -10.02510694743139 18.56501286561368 -10.02510694743139
S 1214.2282073073252 505.94663763274815 1214.2282073073252 540.8488618201019
z" fill="none" stroke="none" style="animation-play-state:paused" ></path>


<use xlink:href="#path-ol1nrewamkb-1" x="0" y="0" stroke="#163832" transform="translate(1177.2044677734375 546.910400390625)" style="animation-play-state:paused" ></use>
<path id="path27" d="M 1269.3048033098964 147.60509947765505
c 0 55.776677377879295 -13.647484890332167 16.020960523433416 -29.668445413765582 16.020960523433416
S 1209.9679124823654 203.38177685553433 1209.9679124823654 147.60509947765505
s 13.647484890332167 -16.020960523433416 29.668445413765582 -16.020960523433416
S 1269.3048033098964 91.82842209977575 1269.3048033098964 147.60509947765505
z" fill="none" stroke="none" style="animation-play-state:paused" ></path>


<use xlink:href="#path-ol1nrewamkb-2" x="0" y="0" stroke="#8eb69b" transform="translate(1265.4632568359375 176.2567596435547)" style="animation-play-state:paused" ></use>
<path id="path28" d="M 1341.6660540278267 404.51531887140965
c 0 64.14584264598821 -15.6952593708269 18.424869696188104 -34.120129067015 18.424869696188104
S 1273.425795893797 468.6611615173979 1273.425795893797 404.51531887140965
s 15.6952593708269 -18.424869696188104 34.120129067015 -18.424869696188104
S 1341.6660540278267 340.3694762254214 1341.6660540278267 404.51531887140965
z" fill="none" stroke="none" style="animation-play-state:paused" ></path>


<use xlink:href="#path-ol1nrewamkb-3" x="0" y="0" stroke="#163832" transform="translate(1295.19482421875 380.548828125)" style="animation-play-state:paused" ></use>
<path id="path29" d="M 1361.5785913871011 371.2422908288136
c 0 53.95637281227395 -13.202091220024474 15.49810708437656 -28.700198304401034 15.49810708437656
S 1304.178194778299 425.1986636410876 1304.178194778299 371.2422908288136
s 13.202091220024474 -15.49810708437656 28.700198304401034 -15.49810708437656
S 1361.5785913871011 317.28591801653965 1361.5785913871011 371.2422908288136
z" fill="none" stroke="none" style="animation-play-state:paused" ></path>


<use xlink:href="#path-ol1nrewamkb-2" x="0" y="0" stroke="#8eb69b" transform="translate(1359.77099609375 394.85205078125)" style="animation-play-state:paused" ></use>
<path id="path30" d="M 1425.6390417112577 732.4460637913121
c 0 45.43074508174835 -11.116033371066083 13.0492565660341 -24.165289937100184 13.0492565660341
S 1377.3084618370574 777.8768088730604 1377.3084618370574 732.4460637913121
s 11.116033371066083 -13.0492565660341 24.165289937100184 -13.0492565660341
S 1425.6390417112577 687.0153187095638 1425.6390417112577 732.4460637913121
z" fill="none" stroke="none" style="animation-play-state:paused" ></path>


<use xlink:href="#path-ol1nrewamkb-2" x="0" y="0" stroke="#8eb69b" transform="translate(1393.548583984375 716.0997924804688)" style="animation-play-state:paused" ></use>
<path id="path31" d="M 1469.0066428683622 155.56131604041911
c 0 36.17928516084155 -8.852378284035696 10.391922333433211 -19.24430061746891 10.391922333433211
S 1430.5180416334242 191.74060120126066 1430.5180416334242 155.56131604041911
s 8.852378284035696 -10.391922333433211 19.24430061746891 -10.391922333433211
S 1469.0066428683622 119.38203087957757 1469.0066428683622 155.56131604041911
z" fill="none" stroke="none" style="animation-play-state:paused" ></path>


<use xlink:href="#path-ol1nrewamkb-1" x="0" y="0" stroke="#163832" transform="translate(1430.594970703125 150.21014404296875)" style="animation-play-state:paused" ></use>
<path id="path32" d="M 1511.9907905433226 171.8912925840426
c 0 30.21264628744743 -7.392456006503094 8.678100529373198 -16.070556535876293 8.678100529373198
S 1479.8496774715702 202.10393887149002 1479.8496774715702 171.8912925840426
s 7.392456006503094 -8.678100529373198 16.070556535876293 -8.678100529373198
S 1511.9907905433226 141.67864629659516 1511.9907905433226 171.8912925840426
z" fill="none" stroke="none" style="animation-play-state:paused" ></path>


<use xlink:href="#path-ol1nrewamkb-1" x="0" y="0" stroke="#235347" transform="translate(1479.8572998046875 170.29725646972656)" style="animation-play-state:paused" ></use>
<path id="path33" d="M 1541.499953097612 691.9590212463115
c 0 28.88115890860968 -7.066666541468325 8.29565202694108 -15.362318568409403 8.29565202694108
S 1510.7753159607933 720.8401801549212 1510.7753159607933 691.9590212463115
s 7.066666541468325 -8.29565202694108 15.362318568409403 -8.29565202694108
S 1541.499953097612 663.0778623377018 1541.499953097612 691.9590212463115
z" fill="none" stroke="none" style="animation-play-state:paused" ></path>


<use xlink:href="#path-ol1nrewamkb-1" x="0" y="0" stroke="#8eb69b" transform="translate(1512.7481689453125 706.7764892578125)" style="animation-play-state:paused" ></use>
<path id="path34" d="M 1608.4103326127715 378.4545695166952
c 0 33.669365087665945 -8.2382489044289 9.670987844329579 -17.90923674875848 9.670987844329579
S 1572.5918591152545 412.1239346043611 1572.5918591152545 378.4545695166952
s 8.2382489044289 -9.670987844329579 17.90923674875848 -9.670987844329579
S 1608.4103326127715 344.78520442902925 1608.4103326127715 378.4545695166952
z" fill="none" stroke="none" style="animation-play-state:paused" ></path>


<use xlink:href="#path-ol1nrewamkb-3" x="0" y="0" stroke="#163832" transform="translate(1601.8150634765625 395.0771789550781)" style="animation-play-state:paused" ></use>
<path id="path35" d="M 1623.5986683937183 589.3607840884277
c 0 32.81572621070504 -8.029379817512933 9.425793698819533 -17.455173516332465 9.425793698819533
S 1588.6883213610533 622.1765102991328 1588.6883213610533 589.3607840884277
s 8.029379817512933 -9.425793698819533 17.455173516332465 -9.425793698819533
S 1623.5986683937183 556.5450578777227 1623.5986683937183 589.3607840884277
z" fill="none" stroke="none" style="animation-play-state:paused" ></path>


<use xlink:href="#path-ol1nrewamkb-3" x="0" y="0" stroke="#163832" transform="translate(1591.881591796875 606.81201171875)" style="animation-play-state:paused" ></use>
<path id="path36" d="M 1694.3089947758888 451.3834626735409
c 0 23.26061483103005 -5.6914270331243735 6.681240430189482 -12.372667463313856 6.681240430189482
S 1669.5636598492613 474.644077504571 1669.5636598492613 451.3834626735409
s 5.6914270331243735 -6.681240430189482 12.372667463313856 -6.681240430189482
S 1694.3089947758888 428.12284784251085 1694.3089947758888 451.3834626735409
z" fill="none" stroke="none" style="animation-play-state:paused" ></path>


<use xlink:href="#path-ol1nrewamkb-3" x="0" y="0" stroke="#163832" transform="translate(1677.3348388671875 460.171875)" style="animation-play-state:paused" ></use>
<path id="path37" d="M 1710.790313260688 316.0166688716194
c 0 47.822964218075676 -11.701363585273834 13.736383339234502 -25.437746924508335 13.736383339234502
S 1659.9148194116715 363.8396330896951 1659.9148194116715 316.0166688716194
s 11.701363585273834 -13.736383339234502 25.437746924508335 -13.736383339234502
S 1710.790313260688 268.1937046535437 1710.790313260688 316.0166688716194
z" fill="none" stroke="none" style="animation-play-state:paused" ></path>


<use xlink:href="#path-ol1nrewamkb-1" x="0" y="0" stroke="#163832" transform="translate(1659.9874267578125 309.9645690917969)" style="animation-play-state:paused" ></use>
<path id="path38" d="M 1779.7701930133094 924.6726309025549
c 0 41.613829743577234 -10.18210727768379 11.95290854336793 -22.13501582105172 11.95290854336793
S 1735.500161371206 966.2864606461321 1735.500161371206 924.6726309025549
s 10.18210727768379 -11.95290854336793 22.13501582105172 -11.95290854336793
S 1779.7701930133094 883.0588011589778 1779.7701930133094 924.6726309025549
z" fill="none" stroke="none" style="animation-play-state:paused" ></path>


<use xlink:href="#path-ol1nrewamkb-3" x="0" y="0" stroke="#163832" transform="translate(1778.1004638671875 905.5532836914062)" style="animation-play-state:paused" ></use>
<path id="path39" d="M 1830.0208914349173 76.84644951636317
c 0 21.2807403672072 -5.206989664316655 6.112553084197813 -11.319542748514468 6.112553084197813
S 1807.3818059378882 98.12718988357037 1807.3818059378882 76.84644951636317
s 5.206989664316655 -6.112553084197813 11.319542748514468 -6.112553084197813
S 1830.0208914349173 55.565709149155964 1830.0208914349173 76.84644951636317
z" fill="none" stroke="none" style="animation-play-state:paused" ></path>


<use xlink:href="#path-ol1nrewamkb-1" x="0" y="0" stroke="#8eb69b" transform="translate(1828.498291015625 65.85511016845703)" style="animation-play-state:paused" ></use>
<path id="path40" d="M 1877.3215911641178 322.08025714726693
c 0 25.562303121959253 -6.2546060830325825 7.342363662690424 -13.596969745723007 7.342363662690424
S 1850.1276516726716 347.6425602692262 1850.1276516726716 322.08025714726693
s 6.2546060830325825 -7.342363662690424 13.596969745723007 -7.342363662690424
S 1877.3215911641178 296.5179540253077 1877.3215911641178 322.08025714726693
z" fill="none" stroke="none" style="animation-play-state:paused" ></path>


<use xlink:href="#path-ol1nrewamkb-2" x="0" y="0" stroke="#235347" transform="translate(1850.1312255859375 321.1527099609375)" style="animation-play-state:paused" ></use>
<path id="path41" d="M 1904.904909519359 754.087907814349
c 0 19.288396473135624 -4.719501264703397 5.540284093347466 -10.259785358050863 5.540284093347466
S 1884.3853388032576 773.3763042874847 1884.3853388032576 754.087907814349
s 4.719501264703397 -5.540284093347466 10.259785358050863 -5.540284093347466
S 1904.904909519359 734.7995113412134 1904.904909519359 754.087907814349
z" fill="none" stroke="none" style="animation-play-state:paused" ></path>


<use xlink:href="#path-ol1nrewamkb-1" x="0" y="0" stroke="#8eb69b" transform="translate(1904.88232421875 751.9659423828125)" style="animation-play-state:paused" ></use>
<path id="path42" d="M 1939.615042032099 296.4978752554208
c 0 38.34510983996301 -9.382314109778182 11.014020911478736 -20.39633502125692 11.014020911478736
S 1898.8223719895852 334.8429850953838 1898.8223719895852 296.4978752554208
s 9.382314109778182 -11.014020911478736 20.39633502125692 -11.014020911478736
S 1939.615042032099 258.1527654154578 1939.615042032099 296.4978752554208
z" fill="none" stroke="none" style="animation-play-state:running" ></path>


<use xlink:href="#path-ol1nrewamkb-3" x="0" y="0" stroke="#235347" transform="translate(1922.8177490234375 284.5995788574219)" style="animation-play-state:paused" ></use></g></svg>
